<svg width="180" height="35" viewBox="0 0 180 35" fill="none" xmlns="http://www.w3.org/2000/svg">
<path d="M17.832 16.384C20.04 16.8 21.832 17.616 23.208 18.832C24.616 20.048 25.32 21.872 25.32 24.304C25.32 27.856 24.04 30.368 21.48 31.84C18.952 33.28 15.4 34 10.824 34H0.12V0.735999H9.528C14.2 0.735999 17.768 1.408 20.232 2.752C22.696 4.064 23.928 6.224 23.928 9.232C23.928 11.184 23.336 12.768 22.152 13.984C21 15.168 19.56 15.968 17.832 16.384ZM7.992 6.304V14.032H10.92C14.248 14.032 15.912 12.688 15.912 10C15.912 8.656 15.464 7.712 14.568 7.168C13.672 6.592 12.248 6.304 10.296 6.304H7.992ZM10.872 28.288C12.952 28.288 14.52 27.984 15.576 27.376C16.664 26.736 17.208 25.568 17.208 23.872C17.208 20.8 15.288 19.264 11.448 19.264H7.992V28.288H10.872ZM43.425 7.792C44.353 7.792 45.201 7.904 45.969 8.128L44.769 15.472C43.809 15.248 43.041 15.136 42.465 15.136C40.961 15.136 39.809 15.664 39.009 16.72C38.241 17.744 37.633 19.296 37.185 21.376V34H29.601V8.512H36.225L36.849 13.456C37.425 11.696 38.289 10.32 39.441 9.328C40.625 8.304 41.953 7.792 43.425 7.792ZM70.3706 34H63.7946L63.4586 30.784C61.6026 33.472 59.0266 34.816 55.7306 34.816C53.3946 34.816 51.6186 34.112 50.4026 32.704C49.2186 31.296 48.6266 29.328 48.6266 26.8V8.512H56.2106V25.84C56.2106 27.088 56.4026 27.968 56.7866 28.48C57.2026 28.96 57.8266 29.2 58.6586 29.2C60.2586 29.2 61.6346 28.208 62.7866 26.224V8.512H70.3706V34ZM91.2634 7.696C93.4714 7.696 95.1994 8.368 96.4474 9.712C97.6954 11.056 98.3194 12.944 98.3194 15.376V34H90.7354V16.672C90.7354 15.392 90.5274 14.512 90.1114 14.032C89.7274 13.52 89.1354 13.264 88.3354 13.264C86.7994 13.264 85.3274 14.368 83.9194 16.576V34H76.3354V8.512H82.9594L83.4874 11.536C84.5754 10.256 85.7434 9.296 86.9914 8.656C88.2714 8.016 89.6954 7.696 91.2634 7.696ZM124.295 26.608C124.295 27.568 124.423 28.272 124.679 28.72C124.967 29.168 125.415 29.504 126.023 29.728L124.439 34.672C122.871 34.544 121.591 34.208 120.599 33.664C119.607 33.088 118.839 32.192 118.295 30.976C116.631 33.536 114.071 34.816 110.615 34.816C108.087 34.816 106.071 34.08 104.567 32.608C103.063 31.136 102.311 29.216 102.311 26.848C102.311 24.064 103.335 21.936 105.383 20.464C107.431 18.992 110.391 18.256 114.263 18.256H116.855V17.152C116.855 15.648 116.535 14.624 115.895 14.08C115.255 13.504 114.135 13.216 112.535 13.216C111.703 13.216 110.695 13.344 109.511 13.6C108.327 13.824 107.111 14.144 105.863 14.56L104.135 9.568C105.735 8.96 107.367 8.496 109.031 8.176C110.727 7.856 112.295 7.696 113.734 7.696C117.383 7.696 120.055 8.448 121.751 9.952C123.447 11.456 124.295 13.712 124.295 16.72V26.608ZM112.823 29.392C114.551 29.392 115.895 28.576 116.855 26.944V22.432H114.983C113.255 22.432 111.959 22.736 111.095 23.344C110.263 23.952 109.847 24.896 109.847 26.176C109.847 27.2 110.103 28 110.615 28.576C111.159 29.12 111.895 29.392 112.823 29.392ZM149.742 0.735999V34H141.87V0.735999H149.742ZM168.846 0.735999L158.238 15.664L169.71 34H160.59L149.982 16.24L160.542 0.735999H168.846ZM174.885 26.128C176.069 26.128 177.077 26.56 177.909 27.424C178.773 28.256 179.205 29.264 179.205 30.448C179.205 31.664 178.773 32.704 177.909 33.568C177.077 34.4 176.069 34.816 174.885 34.816C173.669 34.816 172.629 34.4 171.765 33.568C170.933 32.704 170.517 31.664 170.517 30.448C170.517 29.264 170.933 28.256 171.765 27.424C172.629 26.56 173.669 26.128 174.885 26.128Z" fill="#141414"/>
</svg>
