<svg width="25" height="25" viewBox="0 0 25 25" fill="none" xmlns="http://www.w3.org/2000/svg">
<path d="M14.5833 9.16663C14.5833 9.06246 14.6181 8.96263 14.6875 8.86715C14.7569 8.77166 14.8351 8.70656 14.9219 8.67183C15.4427 8.48086 15.9766 8.33329 16.5234 8.22913C17.0703 8.12496 17.6389 8.07288 18.2292 8.07288C18.6111 8.07288 18.9844 8.09458 19.349 8.13798C19.7135 8.18138 20.0694 8.24649 20.4167 8.33329C20.5208 8.36802 20.6163 8.43312 20.7031 8.52861C20.7899 8.62409 20.8333 8.7326 20.8333 8.85413C20.8333 9.0451 20.7682 9.19267 20.638 9.29683C20.5078 9.401 20.3472 9.42704 20.1563 9.37496C19.8611 9.28815 19.553 9.22305 19.2318 9.17965C18.9106 9.13624 18.5764 9.11454 18.2292 9.11454C17.7257 9.11454 17.2396 9.16229 16.7708 9.25777C16.3021 9.35326 15.842 9.49649 15.3906 9.68746C15.1476 9.77427 14.9523 9.76992 14.8047 9.67444C14.6571 9.57895 14.5833 9.40968 14.5833 9.16663ZM14.5833 14.8958C14.5833 14.7916 14.6181 14.6875 14.6875 14.5833C14.7569 14.4791 14.8351 14.4097 14.9219 14.375C15.4427 14.184 15.9766 14.0408 16.5234 13.9453C17.0703 13.8498 17.6389 13.802 18.2292 13.802C18.6111 13.802 18.9844 13.8237 19.349 13.8671C19.7135 13.9106 20.0694 13.9757 20.4167 14.0625C20.5208 14.0972 20.6163 14.1623 20.7031 14.2578C20.7899 14.3533 20.8333 14.4618 20.8333 14.5833C20.8333 14.7743 20.7682 14.9218 20.638 15.026C20.5078 15.1302 20.3472 15.1562 20.1563 15.1041C19.8611 15.0173 19.553 14.9522 19.2318 14.9088C18.9106 14.8654 18.5764 14.8437 18.2292 14.8437C17.7257 14.8437 17.2396 14.8871 16.7708 14.9739C16.3021 15.0607 15.842 15.1996 15.3906 15.3906C15.1476 15.4774 14.9523 15.4774 14.8047 15.3906C14.6571 15.3038 14.5833 15.1388 14.5833 14.8958ZM14.5833 12.0312C14.5833 11.927 14.6181 11.8272 14.6875 11.7317C14.7569 11.6362 14.8351 11.5711 14.9219 11.5364C15.4427 11.3454 15.9766 11.1979 16.5234 11.0937C17.0703 10.9895 17.6389 10.9375 18.2292 10.9375C18.6111 10.9375 18.9844 10.9592 19.349 11.0026C19.7135 11.046 20.0694 11.1111 20.4167 11.1979C20.5208 11.2326 20.6163 11.2977 20.7031 11.3932C20.7899 11.4887 20.8333 11.5972 20.8333 11.7187C20.8333 11.9097 20.7682 12.0573 20.638 12.1614C20.5078 12.2656 20.3472 12.2916 20.1563 12.2395C19.8611 12.1527 19.553 12.0876 19.2318 12.0442C18.9106 12.0008 18.5764 11.9791 18.2292 11.9791C17.7257 11.9791 17.2396 12.0269 16.7708 12.1224C16.3021 12.2178 15.842 12.3611 15.3906 12.552C15.1476 12.6388 14.9523 12.6345 14.8047 12.539C14.6571 12.4435 14.5833 12.2743 14.5833 12.0312ZM13.3333 18.4895C14.2014 18.0555 15.0521 17.73 15.8854 17.513C16.7188 17.296 17.6042 17.1875 18.5417 17.1875C19.2014 17.1875 19.8828 17.2395 20.5859 17.3437C21.2891 17.4479 21.8924 17.5868 22.3958 17.7604V6.5885C21.8056 6.29336 21.1806 6.07635 20.5208 5.93746C19.8611 5.79857 19.2014 5.72913 18.5417 5.72913C17.6042 5.72913 16.6971 5.87236 15.8203 6.15881C14.9436 6.44527 14.1146 6.84892 13.3333 7.36975V18.4895ZM12.5521 20.5468C12.4132 20.5468 12.2873 20.5338 12.1745 20.5078C12.0616 20.4817 11.9618 20.434 11.875 20.3645C11.059 19.8611 10.191 19.4704 9.27084 19.1927C8.3507 18.9149 7.4132 18.776 6.45834 18.776C5.81598 18.776 5.19098 18.8541 4.58334 19.0104C3.9757 19.1666 3.36806 19.3576 2.76042 19.5833C2.36112 19.7743 1.97483 19.7482 1.60157 19.5052C1.2283 19.2621 1.04167 18.9149 1.04167 18.4635V6.40621C1.04167 6.14579 1.10244 5.90708 1.22396 5.69006C1.34549 5.47305 1.52778 5.30378 1.77084 5.18225C2.50001 4.83503 3.25955 4.57895 4.04948 4.41402C4.83941 4.24909 5.64237 4.16663 6.45834 4.16663C7.55209 4.16663 8.61546 4.3142 9.64844 4.60933C10.6814 4.90447 11.6493 5.35586 12.5521 5.9635C13.4375 5.35586 14.388 4.90447 15.4037 4.60933C16.4193 4.3142 17.4653 4.16663 18.5417 4.16663C19.3576 4.16663 20.1563 4.24909 20.9375 4.41402C21.7188 4.57895 22.474 4.83503 23.2031 5.18225C23.4462 5.30378 23.6328 5.47305 23.763 5.69006C23.8932 5.90708 23.9583 6.14579 23.9583 6.40621V18.4635C23.9583 18.9496 23.763 19.3185 23.3724 19.5703C22.9818 19.822 22.5955 19.8263 22.2135 19.5833C21.6233 19.3402 21.0243 19.1449 20.4167 18.9974C19.809 18.8498 19.184 18.776 18.5417 18.776C17.6042 18.776 16.684 18.9149 15.7813 19.1927C14.8785 19.4704 14.0278 19.8611 13.2292 20.3645C13.1424 20.434 13.0425 20.4817 12.9297 20.5078C12.8168 20.5338 12.691 20.5468 12.5521 20.5468Z" fill="#F2BB6D"/>
</svg>
