<svg width="25" height="25" viewBox="0 0 25 25" fill="none" xmlns="http://www.w3.org/2000/svg">
<path d="M13.8281 22.9167C13.4288 22.9167 13.138 22.7865 12.9557 22.5261C12.7734 22.2657 12.7517 21.9445 12.8906 21.5625L16.7188 11.4063C16.8229 11.1285 17.0139 10.8941 17.2917 10.7032C17.5695 10.5122 17.8559 10.4167 18.151 10.4167C18.4462 10.4167 18.737 10.5122 19.0234 10.7032C19.3099 10.8941 19.5052 11.1285 19.6094 11.4063L23.5156 21.4584C23.6719 21.8577 23.6545 22.2006 23.4635 22.487C23.2726 22.7735 22.9514 22.9167 22.5 22.9167C22.309 22.9167 22.1267 22.8559 21.9531 22.7344C21.7795 22.6129 21.658 22.4566 21.5885 22.2657L20.7292 19.6355H15.7292L14.7396 22.2917C14.6701 22.4653 14.5486 22.6129 14.375 22.7344C14.2014 22.8559 14.0191 22.9167 13.8281 22.9167ZM16.3021 17.8125H20L18.1771 12.7605H18.125L16.3021 17.8125ZM7.52605 8.90629C7.78646 9.35768 8.07292 9.79605 8.38542 10.2214C8.69792 10.6467 9.03646 11.0851 9.40105 11.5365C10.1823 10.7205 10.8333 9.87417 11.3542 8.99744C11.875 8.1207 12.3177 7.2049 12.6823 6.25004H2.08334C1.7882 6.25004 1.5408 6.15021 1.34115 5.95056C1.1415 5.75091 1.04167 5.50351 1.04167 5.20837C1.04167 4.91324 1.1415 4.66584 1.34115 4.46619C1.5408 4.26653 1.7882 4.16671 2.08334 4.16671H8.33334V3.12504C8.33334 2.8299 8.43317 2.58251 8.63282 2.38285C8.83247 2.1832 9.07987 2.08337 9.37501 2.08337C9.67014 2.08337 9.91754 2.1832 10.1172 2.38285C10.3168 2.58251 10.4167 2.8299 10.4167 3.12504V4.16671H16.6667C16.9618 4.16671 17.2092 4.26653 17.4089 4.46619C17.6085 4.66584 17.7083 4.91324 17.7083 5.20837C17.7083 5.50351 17.6085 5.75091 17.4089 5.95056C17.2092 6.15021 16.9618 6.25004 16.6667 6.25004H14.7656C14.3837 7.44796 13.8759 8.62417 13.2422 9.77869C12.6085 10.9332 11.8316 12.0313 10.9115 13.073L13.4635 15.6511L12.6823 17.7605L9.37501 14.5834L4.8698 19.0886C4.67882 19.2796 4.44445 19.375 4.16667 19.375C3.88889 19.375 3.65452 19.2709 3.46355 19.0625C3.25521 18.8716 3.15105 18.6372 3.15105 18.3594C3.15105 18.0816 3.25521 17.8386 3.46355 17.6302L8.04688 13.0469C7.59549 12.5087 7.17014 11.9662 6.77084 11.4193C6.37153 10.8724 6.00695 10.3125 5.67709 9.73962C5.46876 9.35768 5.45139 9.02782 5.62501 8.75004C5.79862 8.47226 6.11112 8.33337 6.56251 8.33337C6.75348 8.33337 6.94011 8.3898 7.1224 8.50265C7.30469 8.61549 7.43924 8.75004 7.52605 8.90629Z" fill="#F2BB6D"/>
</svg>
